<svg width="143" height="94" viewBox="0 0 143 94" fill="none" xmlns="http://www.w3.org/2000/svg">
<path d="M8.59473 93.9998C8.58724 93.9998 8.57975 93.9989 8.57227 93.9988C11.0162 93.9972 13.4603 93.9956 15.9043 93.993C13.4678 93.9956 11.0312 93.9982 8.59473 93.9998ZM133.897 0.000804722C138.55 0.00151628 142.011 2.63548 142.769 6.81721C142.946 7.79252 142.936 8.81423 142.938 9.81428C142.964 34.696 142.982 59.5781 143 84.4598C143.004 90.6299 139.809 93.9903 133.877 93.991C132.039 93.9911 130.201 93.9901 128.363 93.9901C133.981 93.9508 137.004 90.7732 137 84.9666C136.982 61.4084 136.966 37.85 136.94 14.2918C136.939 13.345 136.948 12.3783 136.778 11.4549C136.052 7.49554 132.736 5.00146 128.279 5.0008C108.343 4.99909 88.4075 5.0008 68.4717 5.0008V5.09651C48.5359 5.09651 28.5999 5.09725 8.66406 5.09553C3.13747 5.09496 0.0544309 8.22848 0.00195503 13.9012C0.00117735 12.4559 0.000630693 11.0106 1.90643e-06 9.56526C-0.00286247 3.47032 3.22211 0.100935 9.04297 0.101391C29.8519 0.103201 50.6617 0.101391 71.4707 0.101391V0.000804722C92.2795 0.000804693 113.089 -0.00100586 133.897 0.000804722ZM7.50391 67.8524C7.83635 68.5444 8.82656 68.4119 9.57617 68.4119C28.4513 68.4143 47.327 68.4093 66.2021 68.4051C66.2457 68.518 66.2687 68.6477 66.2637 68.7967C66.2439 69.3944 65.8289 69.7088 65.2598 69.7557C64.9877 69.7779 64.7127 69.7664 64.4395 69.7664C46.0181 69.7704 27.5962 69.7756 9.17481 69.7733C8.28677 69.7733 7.0455 69.9653 7.08008 68.6356C7.0918 68.1899 7.25976 67.9626 7.50391 67.8524Z" fill="#00D6B1"/>
</svg>
