<svg width="108" height="76" viewBox="0 0 108 76" fill="none" xmlns="http://www.w3.org/2000/svg">
<path d="M6.47949 75.2003C6.47656 75.2003 6.47363 75.1993 6.4707 75.1993C12.7632 75.1947 19.0561 75.1839 25.3486 75.1837C19.0591 75.1852 12.769 75.1958 6.47949 75.2003ZM100.948 0.00105C104.456 0.00153283 107.066 2.10867 107.638 5.45417C107.771 6.23433 107.764 7.05169 107.765 7.85164C107.785 27.7569 107.798 47.6622 107.812 67.5675C107.815 72.5039 105.406 75.193 100.933 75.1934C99.5329 75.1935 98.1331 75.1925 96.7334 75.1925C100.996 75.178 103.291 72.6347 103.288 67.9737C103.275 49.1271 103.263 30.2803 103.243 11.4337C103.242 10.6762 103.249 9.90282 103.121 9.16414C102.574 5.99659 100.073 4.00151 96.7129 4.00105C81.6827 3.99968 66.6522 4.00105 51.6221 4.00105V4.07722C36.5921 4.07722 21.5622 4.07859 6.53223 4.07722C2.36376 4.07677 0.0385645 6.5851 0.000978 11.127C0.000390531 9.96882 0.0004763 8.81062 1.43711e-06 7.65242C-0.00215814 2.77636 2.42968 0.0806453 6.81836 0.0811281C22.5065 0.0825765 38.1947 0.0811282 53.8828 0.0811281V7.34407e-05C69.5711 7.34407e-05 85.2599 -0.000398426 100.948 0.00105ZM5.65723 54.2813C5.90757 54.8357 6.65435 54.7296 7.21973 54.7296C21.4501 54.7315 35.6808 54.7271 49.9111 54.7237C49.9441 54.814 49.9618 54.9179 49.958 55.0372C49.9431 55.5154 49.6303 55.7673 49.2012 55.8048C48.9961 55.8226 48.7889 55.8136 48.583 55.8135C34.6946 55.8167 20.8054 55.8203 6.91699 55.8184C6.24748 55.8184 5.31182 55.972 5.33789 54.9083C5.3468 54.5519 5.47314 54.3695 5.65723 54.2813Z" fill="#00D6B1"/>
</svg>
