<svg width="152" height="137" viewBox="0 0 152 137" fill="none" xmlns="http://www.w3.org/2000/svg">
<path d="M126.875 0.786766C132.561 -1.32686 137.063 0.868936 139.045 6.76235C143.152 18.9786 147.246 31.2 151.342 43.4206C151.925 45.1621 151.925 45.2058 150.14 45.2067C146.456 33.975 142.775 22.743 139.081 11.5153C137.213 5.8368 132.969 3.72095 127.608 5.75747C107.631 13.3472 87.6599 20.9577 67.6719 28.5163C49.9583 35.2144 32.2241 41.8532 14.5 48.5202C13.2296 48.9982 11.966 49.4884 10.8975 50.404C8.02211 52.8667 7.25823 56.3701 8.73733 60.7633C13.5737 75.1283 18.4409 89.4821 23.2813 103.845C26.322 112.869 29.3007 121.916 32.376 130.925C33.3268 133.711 34.8585 135.562 36.8164 136.429C31.731 138.099 27.7303 136.07 25.8555 130.696C22.5933 121.345 19.4335 111.955 16.208 102.59C11.0736 87.6824 5.91144 72.7856 0.781272 57.8766C-0.787924 53.3167 0.0221069 49.6808 3.07229 47.1247C4.20579 46.1743 5.54687 45.6658 6.89455 45.1696C25.6956 38.25 44.5069 31.3597 63.2969 24.4079C84.4995 16.563 105.684 8.66395 126.875 0.786766Z" fill="#5CF5D7"/>
</svg>
