<svg width="115" height="110" viewBox="0 0 115 110" fill="none" xmlns="http://www.w3.org/2000/svg">
<path d="M95.6553 0.629144C99.942 -1.06143 103.336 0.695722 104.83 5.41039C107.927 15.1833 111.013 24.9602 114.101 34.7366C114.54 36.1299 114.541 36.1646 113.194 36.1653C110.418 27.18 107.642 18.1942 104.857 9.21215C103.449 4.6696 100.249 2.97671 96.208 4.60571C81.1465 10.6775 66.09 16.7669 51.0205 22.8137C37.6657 28.1723 24.2954 33.483 10.9326 38.8166C9.9749 39.1991 9.02239 39.5911 8.21682 40.3235C6.04883 42.2938 5.47261 45.0967 6.58792 48.6116C10.2341 60.1035 13.9035 71.5859 17.5528 83.0764C19.8452 90.2952 22.0906 97.5325 24.4092 104.74C25.1261 106.969 26.2814 108.45 27.7578 109.144C23.9234 110.48 20.9068 108.857 19.4932 104.557C17.0338 97.076 14.6515 89.5647 12.2198 82.0725C8.3488 70.1468 4.45667 58.2292 0.588893 46.302C-0.594128 42.6542 0.0169964 39.7453 2.31643 37.7004C3.17101 36.9402 4.18222 36.533 5.19827 36.136C19.3729 30.6004 33.5555 25.0881 47.7217 19.5266C63.7069 13.2507 79.6786 6.93089 95.6553 0.629144Z" fill="#5CF5D7"/>
</svg>
